<?xml version="1.0" encoding="UTF-8"?>
<svg xmlns="http://www.w3.org/2000/svg" version="1.1" width="100" height="100" viewBox="0 0 100 100"><rect x="0" y="0" width="100" height="100" fill="#ffffff"/><g transform="scale(3.448)"><g transform="translate(0,0)"><path fill-rule="evenodd" d="M10 0L10 2L11 2L11 0ZM12 0L12 1L13 1L13 2L12 2L12 4L13 4L13 5L11 5L11 6L10 6L10 4L11 4L11 3L8 3L8 4L9 4L9 5L8 5L8 7L9 7L9 8L6 8L6 9L5 9L5 8L0 8L0 9L2 9L2 10L1 10L1 12L0 12L0 14L1 14L1 16L0 16L0 21L1 21L1 17L3 17L3 19L2 19L2 20L3 20L3 21L5 21L5 20L6 20L6 21L7 21L7 20L8 20L8 23L10 23L10 25L9 25L9 24L8 24L8 29L9 29L9 27L10 27L10 26L13 26L13 27L12 27L12 28L10 28L10 29L12 29L12 28L13 28L13 29L14 29L14 28L13 28L13 27L14 27L14 26L15 26L15 27L16 27L16 28L17 28L17 29L18 29L18 28L17 28L17 27L16 27L16 26L17 26L17 25L18 25L18 26L19 26L19 27L20 27L20 28L19 28L19 29L20 29L20 28L22 28L22 29L23 29L23 28L24 28L24 29L27 29L27 28L28 28L28 26L29 26L29 23L28 23L28 22L29 22L29 21L28 21L28 20L23 20L23 17L24 17L24 18L26 18L26 19L28 19L28 18L29 18L29 17L28 17L28 16L29 16L29 15L28 15L28 14L29 14L29 13L28 13L28 14L27 14L27 16L26 16L26 17L24 17L24 16L23 16L23 17L22 17L22 14L23 14L23 13L24 13L24 15L25 15L25 13L27 13L27 12L25 12L25 10L26 10L26 11L28 11L28 12L29 12L29 11L28 11L28 10L29 10L29 9L28 9L28 8L27 8L27 9L26 9L26 8L25 8L25 9L24 9L24 8L23 8L23 9L22 9L22 8L21 8L21 9L20 9L20 8L19 8L19 6L18 6L18 5L20 5L20 7L21 7L21 2L20 2L20 4L18 4L18 3L16 3L16 2L17 2L17 0L16 0L16 1L15 1L15 0L14 0L14 1L13 1L13 0ZM18 0L18 2L19 2L19 1L21 1L21 0ZM8 1L8 2L9 2L9 1ZM14 1L14 2L13 2L13 3L14 3L14 5L15 5L15 1ZM9 6L9 7L10 7L10 6ZM11 6L11 7L12 7L12 9L11 9L11 8L10 8L10 9L9 9L9 12L11 12L11 13L10 13L10 14L13 14L13 15L12 15L12 16L14 16L14 17L13 17L13 18L12 18L12 17L11 17L11 19L9 19L9 22L10 22L10 23L11 23L11 25L13 25L13 26L14 26L14 25L15 25L15 26L16 26L16 25L17 25L17 24L18 24L18 25L20 25L20 24L19 24L19 22L20 22L20 21L19 21L19 20L20 20L20 19L21 19L21 20L22 20L22 18L18 18L18 19L17 19L17 18L16 18L16 17L17 17L17 16L20 16L20 17L21 17L21 15L20 15L20 14L18 14L18 13L21 13L21 14L22 14L22 13L23 13L23 12L24 12L24 13L25 13L25 12L24 12L24 9L23 9L23 10L22 10L22 9L21 9L21 10L22 10L22 13L21 13L21 11L20 11L20 10L19 10L19 8L18 8L18 6L17 6L17 8L16 8L16 9L15 9L15 8L14 8L14 6L13 6L13 7L12 7L12 6ZM15 6L15 7L16 7L16 6ZM13 8L13 9L12 9L12 10L13 10L13 11L12 11L12 13L14 13L14 14L15 14L15 15L14 15L14 16L15 16L15 17L14 17L14 18L15 18L15 19L16 19L16 18L15 18L15 17L16 17L16 15L17 15L17 13L18 13L18 12L20 12L20 11L18 11L18 12L17 12L17 11L16 11L16 10L17 10L17 9L18 9L18 8L17 8L17 9L16 9L16 10L15 10L15 9L14 9L14 8ZM3 9L3 11L2 11L2 12L1 12L1 13L2 13L2 14L3 14L3 15L2 15L2 16L3 16L3 17L4 17L4 19L5 19L5 18L9 18L9 17L10 17L10 16L11 16L11 15L10 15L10 16L9 16L9 14L7 14L7 13L8 13L8 12L7 12L7 11L8 11L8 9L6 9L6 10L7 10L7 11L6 11L6 12L4 12L4 11L5 11L5 10L4 10L4 9ZM10 9L10 11L11 11L11 9ZM13 9L13 10L14 10L14 11L13 11L13 12L14 12L14 13L15 13L15 14L16 14L16 13L15 13L15 10L14 10L14 9ZM2 12L2 13L3 13L3 12ZM6 12L6 13L4 13L4 15L3 15L3 16L4 16L4 17L5 17L5 16L6 16L6 17L9 17L9 16L6 16L6 15L7 15L7 14L6 14L6 13L7 13L7 12ZM5 14L5 15L4 15L4 16L5 16L5 15L6 15L6 14ZM27 17L27 18L28 18L28 17ZM6 19L6 20L7 20L7 19ZM12 19L12 20L13 20L13 21L11 21L11 20L10 20L10 22L12 22L12 24L13 24L13 25L14 25L14 24L15 24L15 25L16 25L16 24L17 24L17 23L18 23L18 22L19 22L19 21L18 21L18 20L15 20L15 21L14 21L14 20L13 20L13 19ZM15 21L15 22L13 22L13 24L14 24L14 23L15 23L15 22L16 22L16 21ZM17 21L17 22L18 22L18 21ZM21 21L21 24L24 24L24 21ZM25 21L25 25L24 25L24 26L23 26L23 25L21 25L21 27L22 27L22 28L23 28L23 27L24 27L24 26L25 26L25 28L27 28L27 27L26 27L26 26L25 26L25 25L26 25L26 24L27 24L27 25L28 25L28 24L27 24L27 22L28 22L28 21ZM22 22L22 23L23 23L23 22ZM22 26L22 27L23 27L23 26ZM0 0L0 7L7 7L7 0ZM1 1L1 6L6 6L6 1ZM2 2L2 5L5 5L5 2ZM22 0L22 7L29 7L29 0ZM23 1L23 6L28 6L28 1ZM24 2L24 5L27 5L27 2ZM0 22L0 29L7 29L7 22ZM1 23L1 28L6 28L6 23ZM2 24L2 27L5 27L5 24Z" fill="#000000"/></g></g></svg>
