<?xml version="1.0" encoding="UTF-8"?>
<svg xmlns="http://www.w3.org/2000/svg" version="1.1" width="100" height="100" viewBox="0 0 100 100"><rect x="0" y="0" width="100" height="100" fill="#ffffff"/><g transform="scale(3.448)"><g transform="translate(0,0)"><path fill-rule="evenodd" d="M10 0L10 2L11 2L11 0ZM12 0L12 1L13 1L13 2L12 2L12 4L13 4L13 3L14 3L14 4L15 4L15 5L17 5L17 6L16 6L16 8L17 8L17 10L16 10L16 9L12 9L12 7L13 7L13 5L11 5L11 6L10 6L10 4L11 4L11 3L8 3L8 4L9 4L9 5L8 5L8 7L9 7L9 8L6 8L6 9L7 9L7 10L6 10L6 11L7 11L7 12L3 12L3 14L1 14L1 13L2 13L2 11L5 11L5 10L4 10L4 9L5 9L5 8L0 8L0 10L1 10L1 11L0 11L0 12L1 12L1 13L0 13L0 15L2 15L2 16L1 16L1 17L0 17L0 21L1 21L1 18L2 18L2 17L4 17L4 16L5 16L5 15L8 15L8 17L12 17L12 18L13 18L13 19L12 19L12 21L13 21L13 20L14 20L14 21L15 21L15 20L16 20L16 21L19 21L19 22L18 22L18 23L19 23L19 24L15 24L15 23L16 23L16 22L15 22L15 23L14 23L14 24L15 24L15 25L12 25L12 23L13 23L13 22L11 22L11 24L10 24L10 23L9 23L9 22L10 22L10 21L11 21L11 18L8 18L8 19L9 19L9 21L8 21L8 20L6 20L6 21L8 21L8 23L9 23L9 24L8 24L8 29L9 29L9 25L12 25L12 26L13 26L13 27L12 27L12 29L13 29L13 28L14 28L14 29L15 29L15 28L16 28L16 29L20 29L20 28L21 28L21 29L22 29L22 27L23 27L23 28L24 28L24 29L27 29L27 28L28 28L28 26L29 26L29 25L28 25L28 24L29 24L29 23L28 23L28 22L29 22L29 21L28 21L28 20L23 20L23 17L24 17L24 18L26 18L26 19L28 19L28 18L29 18L29 17L28 17L28 16L29 16L29 15L28 15L28 14L29 14L29 13L28 13L28 14L27 14L27 16L26 16L26 17L24 17L24 16L23 16L23 17L22 17L22 14L23 14L23 13L24 13L24 15L25 15L25 13L27 13L27 12L25 12L25 10L26 10L26 11L28 11L28 12L29 12L29 11L28 11L28 10L29 10L29 9L28 9L28 8L27 8L27 9L26 9L26 8L25 8L25 9L24 9L24 8L23 8L23 9L22 9L22 8L21 8L21 6L20 6L20 9L18 9L18 8L19 8L19 6L18 6L18 5L19 5L19 4L20 4L20 5L21 5L21 4L20 4L20 3L19 3L19 2L18 2L18 1L20 1L20 2L21 2L21 0L17 0L17 1L16 1L16 0ZM8 1L8 2L9 2L9 1ZM14 2L14 3L15 3L15 2ZM16 2L16 4L17 4L17 5L18 5L18 4L19 4L19 3L18 3L18 2ZM17 3L17 4L18 4L18 3ZM9 6L9 7L10 7L10 6ZM11 6L11 7L12 7L12 6ZM14 6L14 8L15 8L15 6ZM17 6L17 8L18 8L18 6ZM10 8L10 9L8 9L8 10L7 10L7 11L8 11L8 10L9 10L9 12L11 12L11 13L10 13L10 14L13 14L13 15L12 15L12 17L15 17L15 18L19 18L19 19L20 19L20 20L19 20L19 21L20 21L20 20L22 20L22 18L19 18L19 17L15 17L15 16L14 16L14 15L15 15L15 14L16 14L16 16L20 16L20 17L21 17L21 16L20 16L20 14L18 14L18 15L17 15L17 13L14 13L14 12L15 12L15 11L14 11L14 12L13 12L13 13L12 13L12 11L13 11L13 10L12 10L12 9L11 9L11 8ZM10 9L10 11L11 11L11 9ZM21 9L21 10L22 10L22 13L21 13L21 11L20 11L20 10L18 10L18 11L16 11L16 12L20 12L20 13L21 13L21 14L22 14L22 13L23 13L23 12L24 12L24 13L25 13L25 12L24 12L24 9L23 9L23 10L22 10L22 9ZM4 13L4 14L5 14L5 13ZM6 13L6 14L7 14L7 13ZM3 15L3 16L4 16L4 15ZM9 15L9 16L10 16L10 15ZM6 16L6 17L7 17L7 16ZM27 17L27 18L28 18L28 17ZM3 18L3 19L2 19L2 21L5 21L5 19L7 19L7 18ZM14 19L14 20L15 20L15 19ZM16 19L16 20L18 20L18 19ZM21 21L21 24L24 24L24 21ZM25 21L25 25L24 25L24 26L23 26L23 25L20 25L20 24L19 24L19 25L15 25L15 26L17 26L17 27L16 27L16 28L18 28L18 26L19 26L19 25L20 25L20 27L19 27L19 28L20 28L20 27L22 27L22 26L23 26L23 27L24 27L24 26L25 26L25 28L27 28L27 27L26 27L26 26L25 26L25 25L26 25L26 24L27 24L27 22L28 22L28 21ZM22 22L22 23L23 23L23 22ZM10 26L10 28L11 28L11 26ZM14 27L14 28L15 28L15 27ZM0 0L0 7L7 7L7 0ZM1 1L1 6L6 6L6 1ZM2 2L2 5L5 5L5 2ZM22 0L22 7L29 7L29 0ZM23 1L23 6L28 6L28 1ZM24 2L24 5L27 5L27 2ZM0 22L0 29L7 29L7 22ZM1 23L1 28L6 28L6 23ZM2 24L2 27L5 27L5 24Z" fill="#000000"/></g></g></svg>
